<?xml version="1.0" standalone="no"?>
<!DOCTYPE svg PUBLIC "-//W3C//DTD SVG 20010904//EN"
 "http://www.w3.org/TR/2001/REC-SVG-20010904/DTD/svg10.dtd">
<svg version="1.0" xmlns="http://www.w3.org/2000/svg"
 width="640.000000pt" height="110.000000pt" viewBox="0 0 640.000000 110.000000"
 preserveAspectRatio="xMidYMid meet">

<g transform="translate(0.000000,110.000000) scale(0.100000,-0.100000)"
fill="#000000" stroke="none">
<path d="M3922 698 l3 -403 69 0 c58 -1 70 2 74 17 5 22 1 22 53 -2 154 -70
323 50 323 230 0 181 -178 303 -328 225 -15 -8 -32 -15 -37 -15 -5 0 -9 79 -9
175 l0 175 -75 0 -75 0 2 -402z m339 -77 c32 -32 39 -46 39 -77 0 -71 -50
-123 -118 -124 -37 0 -50 6 -77 33 -59 59 -58 118 1 174 28 26 44 33 76 33 34
0 47 -7 79 -39z"/>
<path d="M1184 1030 c-28 -11 -54 -48 -54 -76 0 -33 36 -71 71 -76 44 -7 89
32 89 75 0 37 -6 47 -40 70 -27 19 -35 20 -66 7z"/>
<path d="M4561 1014 c-24 -19 -31 -34 -31 -60 0 -74 87 -104 138 -48 30 34 28
70 -7 105 -36 36 -60 37 -100 3z"/>
<path d="M1777 1023 c-4 -3 -7 -168 -7 -365 l0 -358 75 0 75 0 0 240 c0 132 4
240 8 240 4 0 86 -108 182 -240 l175 -240 78 0 77 0 1 38 c1 20 1 111 0 202 0
91 -1 238 -1 328 l0 163 -72 -3 -73 -3 -5 -240 -5 -239 -178 242 -178 242 -73
0 c-40 0 -76 -3 -79 -7z"/>
<path d="M821 776 c-19 -7 -48 -29 -65 -49 -24 -31 -30 -47 -30 -89 0 -48 3
-54 42 -88 22 -20 63 -45 89 -55 26 -9 56 -27 66 -38 18 -21 18 -22 -3 -39
-26 -21 -64 -15 -96 14 -22 19 -22 19 -73 -7 -44 -22 -50 -28 -41 -44 16 -31
68 -70 108 -81 117 -32 218 10 243 102 23 86 -16 147 -127 199 -44 21 -64 36
-64 49 0 32 60 41 97 15 20 -14 23 -12 53 21 17 20 29 41 28 47 -2 7 -24 22
-48 35 -50 25 -123 28 -179 8z"/>
<path d="M1625 774 c-16 -8 -37 -22 -46 -30 -22 -20 -29 -18 -29 11 0 24 -2
25 -70 25 l-70 0 0 -240 0 -240 70 0 70 0 0 125 c0 85 5 137 14 159 20 48 64
76 120 76 l46 0 0 65 0 65 -37 0 c-21 0 -51 -7 -68 -16z"/>
<path d="M2697 776 c-82 -30 -134 -84 -156 -162 -33 -119 17 -241 123 -296 33
-18 58 -22 131 -23 81 0 95 3 138 28 43 25 107 103 107 129 0 4 -30 8 -66 8
-59 0 -70 -3 -101 -30 -67 -59 -173 -27 -189 58 l-6 32 187 0 187 0 -7 53 c-9
65 -27 101 -73 150 -59 61 -184 85 -275 53z m175 -127 c10 -12 17 -27 15 -33
-5 -14 -177 -20 -190 -7 -12 12 16 48 48 62 35 15 107 3 127 -22z"/>
<path d="M4929 775 c-49 -16 -109 -67 -136 -118 -25 -45 -25 -189 0 -234 50
-92 147 -139 267 -131 103 8 178 58 210 142 l10 26 -69 0 c-64 0 -72 -2 -99
-30 -31 -31 -74 -39 -129 -24 -26 7 -63 61 -63 93 0 21 3 21 184 21 l184 0 -5
43 c-19 175 -173 267 -354 212z m172 -123 c19 -17 29 -34 25 -40 -9 -15 -182
-16 -191 -2 -4 6 7 24 24 40 41 41 97 42 142 2z"/>
<path d="M5433 771 c-54 -25 -83 -71 -83 -132 0 -63 26 -92 119 -138 55 -27
77 -43 79 -58 7 -45 -62 -49 -110 -7 -14 14 -21 13 -67 -11 -44 -22 -50 -28
-41 -44 28 -54 105 -91 188 -91 116 0 194 96 163 200 -12 42 -55 80 -123 109
-50 21 -73 44 -64 66 7 20 65 20 93 0 20 -14 23 -13 52 22 17 21 30 42 28 48
-8 22 -71 48 -130 52 -47 3 -72 -1 -104 -16z"/>
<path d="M1140 540 l0 -240 70 0 70 0 0 240 0 240 -70 0 -70 0 0 -240z"/>
<path d="M3060 776 c0 -2 32 -98 71 -213 39 -114 74 -219 78 -233 7 -24 12
-25 87 -28 l80 -3 44 135 c24 74 47 133 51 130 4 -2 26 -63 49 -135 l42 -130
80 3 80 3 79 234 c43 129 79 236 79 238 0 2 -36 3 -81 1 l-81 -3 -29 -115
c-44 -174 -50 -193 -58 -184 -10 12 -23 47 -66 187 l-37 117 -58 0 -59 0 -46
-147 c-26 -82 -51 -152 -55 -156 -7 -8 -17 23 -63 208 l-23 90 -82 3 c-45 2
-82 1 -82 -2z"/>
<path d="M4532 543 l3 -238 73 -3 72 -3 0 241 0 240 -75 0 -75 0 2 -237z"/>
<path d="M556 211 c-3 -5 3 -11 14 -14 17 -4 20 -14 20 -66 0 -34 4 -61 10
-61 6 0 10 27 10 61 0 52 3 62 20 66 11 3 20 9 20 14 0 12 -87 12 -94 0z"/>
<path d="M696 211 c-3 -5 -5 -39 -4 -75 1 -47 5 -66 15 -66 8 0 13 12 13 30 0
27 3 30 30 30 27 0 30 -3 30 -30 0 -17 5 -30 13 -30 8 0 12 20 11 70 0 71 -16
102 -22 43 -3 -29 -7 -33 -33 -33 -25 0 -29 4 -29 29 0 30 -14 49 -24 32z"/>
<path d="M862 145 l-3 -75 41 0 c22 0 40 5 40 10 0 6 -11 10 -25 10 -18 0 -25
5 -25 20 0 13 7 20 20 20 11 0 20 5 20 10 0 6 -9 10 -21 10 -30 0 -22 44 9 48
37 5 25 22 -16 22 l-38 0 -2 -75z"/>
<path d="M1080 145 c0 -43 4 -75 10 -75 6 0 10 20 10 45 0 25 3 45 8 45 4 0
20 -20 35 -45 43 -68 57 -60 57 30 0 43 -4 75 -10 75 -5 0 -10 -20 -10 -45 0
-25 -4 -45 -10 -45 -5 0 -23 20 -40 45 -17 25 -35 45 -40 45 -6 0 -10 -34 -10
-75z"/>
<path d="M1284 197 c-63 -55 -5 -155 67 -116 48 25 44 105 -7 128 -32 14 -28
15 -60 -12z m64 -19 c18 -18 15 -66 -5 -76 -10 -6 -28 -6 -40 -1 -40 15 -26
89 17 89 9 0 21 -5 28 -12z"/>
<path d="M1483 210 c-47 -19 -56 -78 -17 -116 19 -20 31 -24 52 -19 56 13 70
78 27 120 -26 27 -30 28 -62 15z m55 -32 c18 -18 14 -53 -8 -73 -18 -17 -21
-17 -45 -1 -28 19 -32 47 -9 70 18 19 45 21 62 4z"/>
<path d="M1630 145 l0 -75 39 0 c48 0 69 21 53 54 -6 13 -8 33 -5 45 8 30 -14
51 -53 51 l-34 0 0 -75z m65 25 c0 -8 -10 -16 -22 -18 -18 -3 -23 2 -23 18 0
16 5 21 23 18 12 -2 22 -10 22 -18z m8 -54 c7 -19 -1 -26 -30 -26 -16 0 -23 6
-23 20 0 14 7 20 24 20 13 0 26 -6 29 -14z"/>
<path d="M1860 145 c0 -74 0 -75 26 -75 55 0 90 40 79 91 -7 31 -47 59 -85 59
-18 0 -20 -6 -20 -75z m82 19 c9 -18 7 -29 -6 -49 -33 -50 -69 -8 -52 60 8 30
43 23 58 -11z"/>
<path d="M2027 213 c-4 -3 -7 -37 -7 -75 l0 -68 40 0 c22 0 40 5 40 10 0 6
-11 10 -25 10 -18 0 -25 5 -25 20 0 13 7 20 20 20 11 0 20 5 20 10 0 6 -9 10
-21 10 -15 0 -20 5 -17 23 2 12 9 23 16 23 29 3 32 4 32 14 0 11 -63 14 -73 3z"/>
<path d="M2140 218 c1 -1 11 -34 24 -73 32 -96 47 -96 78 0 20 63 22 75 9 73
-9 -2 -20 -22 -26 -47 -6 -25 -15 -46 -20 -48 -6 -1 -17 18 -25 44 -8 26 -21
49 -27 51 -7 2 -13 2 -13 0z"/>
<path d="M2470 145 l0 -75 35 0 c39 0 48 17 13 22 -21 3 -23 9 -26 66 -4 88
-22 78 -22 -13z"/>
<path d="M2590 145 l0 -75 41 0 c24 0 38 4 34 10 -3 6 -17 10 -31 10 -17 0
-24 5 -24 20 0 13 7 20 19 20 29 0 35 18 9 22 -25 3 -33 42 -10 44 6 1 19 2
28 3 30 2 2 21 -32 21 l-34 0 0 -75z"/>
<path d="M2706 211 c-3 -5 3 -11 14 -14 17 -4 20 -14 20 -66 0 -34 4 -61 10
-61 6 0 10 27 10 61 0 52 3 62 20 66 32 8 12 23 -30 23 -21 0 -41 -4 -44 -9z"/>
<path d="M2852 195 c0 -16 2 -22 5 -12 2 9 2 23 0 30 -3 6 -5 -1 -5 -18z"/>
<path d="M2942 208 c-22 -22 -14 -56 19 -73 25 -13 28 -19 19 -30 -9 -11 -17
-12 -30 -5 -12 6 -21 7 -25 1 -8 -14 32 -33 55 -26 41 13 34 66 -11 80 -28 9
-24 35 6 35 14 0 25 5 25 10 0 6 -4 10 -9 10 -5 0 -15 2 -23 5 -7 3 -19 0 -26
-7z"/>
<path d="M3145 210 c-6 -10 -4 -11 25 -14 11 -1 15 -14 15 -51 0 -46 -2 -50
-22 -48 -13 2 -23 -1 -23 -7 0 -15 20 -22 46 -16 23 6 24 11 24 76 l0 70 -29
0 c-17 0 -33 -4 -36 -10z"/>
<path d="M3320 212 c-55 -18 -68 -86 -24 -121 15 -12 32 -21 39 -21 29 0 65
41 65 74 0 44 -43 80 -80 68z m44 -38 c22 -22 20 -50 -6 -68 -39 -28 -81 13
-60 60 13 28 43 31 66 8z"/>
<path d="M3459 216 c-8 -8 3 -146 12 -146 5 0 9 34 9 75 0 66 -6 86 -21 71z"/>
<path d="M3540 145 c0 -43 4 -75 10 -75 6 0 10 20 10 45 0 25 4 45 8 45 5 0
23 -20 41 -45 45 -63 57 -59 56 23 0 78 -18 95 -25 25 l-5 -48 -30 45 c-55 82
-65 80 -65 -15z"/>
<path d="M3790 210 c0 -5 6 -10 14 -10 18 0 21 -13 21 -77 0 -78 23 -70 27 10
2 43 7 61 16 60 6 -2 12 4 12 12 0 11 -12 15 -45 15 -25 0 -45 -4 -45 -10z"/>
<path d="M3930 145 c0 -43 4 -75 10 -75 6 0 10 14 10 30 0 27 3 30 30 30 26 0
31 -5 37 -30 3 -16 9 -30 14 -30 12 0 11 137 -1 145 -5 3 -11 -2 -11 -12 -1
-10 -2 -25 -3 -33 0 -9 -13 -16 -33 -18 -32 -3 -33 -2 -33 32 0 20 -4 36 -10
36 -6 0 -10 -32 -10 -75z"/>
<path d="M4100 145 l0 -75 35 0 c19 0 35 5 35 10 0 6 -12 10 -26 10 -33 0 -30
33 4 38 31 5 28 22 -4 22 -21 0 -25 4 -22 23 2 16 11 23 31 25 38 5 23 22 -19
22 l-34 0 0 -75z"/>
<path d="M4310 146 c0 -44 4 -76 10 -76 6 0 10 20 10 45 0 25 3 45 8 45 4 0
21 -21 37 -45 44 -65 55 -59 55 30 0 43 -4 75 -10 75 -5 0 -10 -20 -10 -45 0
-25 -4 -45 -9 -45 -5 0 -22 19 -38 42 -44 65 -53 61 -53 -26z"/>
<path d="M4517 199 c-47 -36 -33 -111 23 -124 36 -9 80 27 80 65 0 59 -60 94
-103 59z m67 -25 c22 -21 20 -40 -5 -65 -18 -18 -23 -19 -42 -6 -29 19 -34 57
-11 74 23 17 39 16 58 -3z"/>
<path d="M4712 210 c-12 -5 -27 -22 -33 -37 -31 -81 70 -140 117 -68 37 56
-22 129 -84 105z m63 -44 c14 -20 14 -28 3 -45 -16 -27 -35 -33 -58 -21 -26
14 -32 40 -15 66 20 31 50 31 70 0z"/>
<path d="M4860 145 l0 -75 39 0 c46 0 66 19 55 52 -4 13 -6 36 -5 52 3 34 -12
46 -56 46 l-33 0 0 -75z m70 29 c0 -19 -28 -30 -41 -17 -7 7 -5 16 6 27 18 18
35 13 35 -10z m5 -64 c0 -19 -35 -26 -46 -9 -4 7 -5 17 -2 22 8 14 48 3 48
-13z"/>
<path d="M5133 210 c-48 -20 -58 -87 -17 -119 15 -12 32 -21 39 -21 21 0 65
41 65 61 0 14 -7 19 -30 19 -16 0 -30 -4 -30 -10 0 -5 10 -10 23 -10 l22 -1
-24 -20 c-21 -17 -26 -18 -45 -6 -28 19 -32 44 -10 68 19 21 44 25 61 8 7 -7
13 -7 17 -1 4 6 -4 18 -16 26 -25 18 -25 18 -55 6z"/>
<path d="M5289 145 c-19 -56 -22 -75 -12 -75 7 0 13 5 13 10 0 6 16 10 35 10
19 0 35 -4 35 -10 0 -5 6 -10 14 -10 11 0 9 15 -9 73 -13 39 -29 73 -37 75 -8
1 -22 -24 -39 -73z m54 3 c7 -26 1 -38 -19 -38 -15 0 -18 18 -8 44 9 22 21 20
27 -6z"/>
<path d="M5437 213 c-2 -5 -5 -38 -5 -75 -1 -52 2 -68 13 -68 9 0 15 15 17 48
l3 47 34 -47 c19 -27 38 -48 42 -48 9 0 18 64 15 110 -3 49 -20 44 -24 -7 -2
-24 -6 -43 -10 -43 -4 0 -20 20 -35 45 -28 43 -41 53 -50 38z"/>
<path d="M5651 207 c-50 -25 -48 -105 4 -129 34 -15 69 2 83 41 l11 31 -37 0
c-35 -1 -36 -2 -17 -15 17 -14 18 -17 4 -30 -18 -19 -45 -11 -60 17 -20 37 44
94 66 58 7 -11 25 -4 25 9 0 6 -44 32 -53 31 -1 0 -13 -6 -26 -13z"/>
<path d="M2306 68 c-10 -38 -6 -45 9 -18 17 29 18 40 6 40 -5 0 -11 -10 -15
-22z"/>
</g>
</svg>
